<?xml version="1.0" encoding="UTF-8" standalone="no"?>
<!-- Created with Inkscape (http://www.inkscape.org/) -->

<svg
   width="640"
   height="640"
   viewBox="0 0 169.33333 169.33333"
   version="1.1"
   id="svg5"
   xml:space="preserve"
   inkscape:version="1.2.1 (9c6d41e410, 2022-07-14, custom)"
   sodipodi:docname="archaeo-social-logo.svg"
   xmlns:inkscape="http://www.inkscape.org/namespaces/inkscape"
   xmlns:sodipodi="http://sodipodi.sourceforge.net/DTD/sodipodi-0.dtd"
   xmlns="http://www.w3.org/2000/svg"
   xmlns:svg="http://www.w3.org/2000/svg"><sodipodi:namedview
     id="namedview7"
     pagecolor="#505050"
     bordercolor="#eeeeee"
     borderopacity="1"
     inkscape:showpageshadow="0"
     inkscape:pageopacity="0"
     inkscape:pagecheckerboard="0"
     inkscape:deskcolor="#505050"
     inkscape:document-units="px"
     showgrid="false"
     inkscape:zoom="1.0252689"
     inkscape:cx="630.56626"
     inkscape:cy="306.74878"
     inkscape:window-width="2560"
     inkscape:window-height="1416"
     inkscape:window-x="2560"
     inkscape:window-y="0"
     inkscape:window-maximized="1"
     inkscape:current-layer="layer1"
     showguides="false"><sodipodi:guide
       position="84.666665,169.33333"
       orientation="-1,0"
       id="guide27115"
       inkscape:locked="false"
       inkscape:label=""
       inkscape:color="rgb(0,134,229)" /><sodipodi:guide
       position="0,84.666665"
       orientation="0,1"
       id="guide27843"
       inkscape:locked="false"
       inkscape:label=""
       inkscape:color="rgb(0,134,229)" /><sodipodi:guide
       position="80.433332,169.33333"
       orientation="-1,0"
       id="guide29297"
       inkscape:locked="false"
       inkscape:label=""
       inkscape:color="rgb(0,134,229)" /><sodipodi:guide
       position="88.899998,169.33333"
       orientation="-1,0"
       id="guide30025"
       inkscape:locked="false"
       inkscape:label=""
       inkscape:color="rgb(0,134,229)" /><sodipodi:guide
       position="0,88.899998"
       orientation="0,1"
       id="guide30753"
       inkscape:locked="false"
       inkscape:label=""
       inkscape:color="rgb(0,134,229)" /><sodipodi:guide
       position="0,80.433332"
       orientation="0,1"
       id="guide32207"
       inkscape:locked="false"
       inkscape:label=""
       inkscape:color="rgb(0,134,229)" /></sodipodi:namedview><defs
     id="defs2" /><g
     inkscape:label="tablet"
     inkscape:groupmode="layer"
     id="layer1"
     style="display:inline"><path
       style="display:inline;fill:#7c6f64;fill-opacity:1;stroke:none;stroke-width:4.19349;stroke-linecap:butt;stroke-linejoin:round;stroke-dasharray:none;stroke-opacity:1"
       d="m 3.9821014,15.043126 c 0,0 -0.2035103,-5.7622271 1.1421583,-7.4493591 C 6.4699281,5.9066347 15.328618,5.2315996 15.328618,5.2315996 c 0,0 21.808919,-3.8727279 76.062313,-3.0103133 54.253369,0.8624144 65.404529,2.3462563 65.404529,2.3462563 0,0 2.52578,-0.204877 4.25661,2.071148 1.73081,2.2760253 1.85235,7.6312334 1.85235,7.6312334 0,0 4.39836,43.139403 4.33138,57.751636 -0.067,14.612233 -0.61104,81.83237 -0.61104,81.83237 0,0 0.14722,5.17631 -2.99323,6.55478 -3.14046,1.37846 -47.35765,7.31534 -67.709873,6.79522 -20.352233,-0.5201 -84.429931,-4.43051 -84.429931,-4.43051 0,0 -4.3645692,0.13148 -5.8848336,-2.1713 C 4.0866291,158.29934 2.375839,155.2525 4.0937706,152.14837 5.8117021,149.04429 4.6812301,97.109764 2.719636,74.520487 0.75804042,51.93121 4.064205,25.952694 4.064205,22.917491 4.064205,19.882292 3.9821,15.043126 3.9821,15.043126 Z"
       id="clay"
       inkscape:label="clay" /><path
       style="fill:#fbf1c7;stroke:none;stroke-width:0.234088px;stroke-linecap:butt;stroke-linejoin:miter;stroke-opacity:1;font-variation-settings:normal;opacity:1;vector-effect:none;fill-opacity:0.4;stroke-miterlimit:4;stroke-dasharray:none;stroke-dashoffset:0;-inkscape-stroke:none;stop-color:#000000;stop-opacity:1"
       d="m 25.493996,110.89409 c 0,0 1.614503,0.2456 4.941831,2.62084 3.327332,2.37524 30.455767,27.56842 30.455767,27.56842 L 27.900976,108.21419 Z"
       id="path76485" /><path
       id="path24827"
       style="fill:#282828;fill-opacity:0.4;stroke:none;stroke-width:0.325039px;stroke-linecap:butt;stroke-linejoin:miter;stroke-opacity:1"
       d="m 161.05216,6.6387432 c 0,0 -4.81673,24.0933178 -5.48785,30.3702598 -0.67114,6.276938 2.27427,33.576106 3.42198,39.885237 1.14769,6.309131 -2.30184,33.68271 -2.39004,40.16082 -0.0883,6.47808 -2.4603,30.5386 -6.25113,32.49045 -3.79081,1.95185 -41.22707,4.07779 -57.947665,4.99176 -16.720602,0.91397 -58.27886,-2.21074 -69.203432,-1.03417 -10.92457,1.17658 -17.5870806,7.09931 -17.5870806,7.09931 1.5202622,2.30277 5.8848626,2.17085 5.8848626,2.17085 0,0 64.077673,3.91083 84.429883,4.43094 20.352202,0.52011 64.569182,-5.4169 67.709652,-6.79536 3.14045,-1.37847 2.99356,-6.55479 2.99356,-6.55479 0,0 0.54388,-67.220558 0.61088,-81.832775 0.0671,-14.61222 -4.33161,-57.751373 -4.33161,-57.751373 0,0 -0.12119,-5.3551359 -1.85201,-7.6311588 z"
       inkscape:label="shadow" /><path
       id="path24871"
       style="fill:#fbf1c7;fill-opacity:0.2;stroke:none;stroke-width:0.325039px;stroke-linecap:butt;stroke-linejoin:miter;stroke-opacity:1"
       d="M 72.545988,2.1028627 C 32.026133,2.2663765 15.328827,5.2313056 15.328827,5.2313056 c 0,0 -8.8587684,0.6754831 -10.2044357,2.3626141 -1.3456675,1.6871299 -1.1422192,7.4490483 -1.1422192,7.4490483 0,0 0.082203,4.839577 0.082203,7.874776 0,3.035198 -3.30632235,29.013774 -1.344728,51.603029 1.961591,22.589254 3.0920652,74.523257 1.3741359,77.627347 -1.7179304,3.10414 -0.00706,6.1515 1.5131544,8.45429 0,0 8.0080066,-10.6162 9.1905436,-18.87741 C 15.980019,133.46378 13.869194,99.496373 13.60781,96.660478 13.346429,93.824585 10.517636,66.181953 10.777998,63.490418 11.038358,60.79888 6.5171794,32.050074 18.788225,25.599954 31.059268,19.149838 33.821089,16.429045 47.099054,14.704677 60.377021,12.980305 89.432722,12.43368 102.25033,12.096634 c 12.81763,-0.337045 39.87555,-1.132431 44.04788,-2.1250242 4.17237,-0.9925941 14.75395,-3.3328666 14.75395,-3.3328666 -1.73083,-2.2760228 -4.25675,-2.0713568 -4.25675,-2.0713568 0,0 -11.15119,-1.4839191 -65.4045,-2.3463325 C 84.609241,2.1132517 78.334538,2.0795036 72.545983,2.1028627 Z"
       inkscape:label="highlight" /><path
       style="display:inline;fill:none;fill-opacity:1;stroke:#282828;stroke-width:2.11666662;stroke-linecap:butt;stroke-linejoin:round;stroke-dasharray:none;stroke-opacity:1"
       d="m 3.9821014,15.043126 c 0,0 -0.2035103,-5.7622271 1.1421583,-7.4493591 C 6.4699281,5.9066347 15.328618,5.2315996 15.328618,5.2315996 c 0,0 21.808919,-3.8727279 76.062313,-3.0103133 54.253369,0.8624144 65.404529,2.3462563 65.404529,2.3462563 0,0 2.52578,-0.204877 4.25661,2.071148 1.73081,2.2760253 1.85235,7.6312334 1.85235,7.6312334 0,0 4.39836,43.139403 4.33138,57.751636 -0.067,14.612233 -0.61104,81.83237 -0.61104,81.83237 0,0 0.14722,5.17631 -2.99323,6.55478 -3.14046,1.37846 -47.35765,7.31534 -67.709873,6.79522 -20.352233,-0.5201 -84.429931,-4.43051 -84.429931,-4.43051 0,0 -4.3645692,0.13148 -5.8848336,-2.1713 C 4.0866291,158.29934 2.375839,155.2525 4.0937706,152.14837 5.8117021,149.04429 4.6812301,97.109764 2.719636,74.520487 0.75804042,51.93121 4.064205,25.952694 4.064205,22.917491 4.064205,19.882292 3.9821,15.043126 3.9821,15.043126 Z"
       id="outline"
       inkscape:label="outline" /></g><g
     inkscape:groupmode="layer"
     id="layer4"
     inkscape:label="grid"><path
       style="display:inline;fill:#282828;stroke:none;stroke-width:0.325039px;stroke-linecap:butt;stroke-linejoin:miter;stroke-opacity:1;font-variation-settings:normal;opacity:1;fill-opacity:0.60000002;stroke-miterlimit:4;stroke-dasharray:none;stroke-dashoffset:0;stop-color:#000000;stop-opacity:1"
       d="m 84.667176,17.219353 c 0,0 -2.981737,4.060211 -3.818654,6.199748 -0.836914,2.139538 -1.660366,38.925278 -1.067882,47.905471 0.592486,8.980191 2.874354,37.251478 2.346367,40.441078 -0.527987,3.1896 -2.814037,31.54927 -2.555753,33.31006 0.258283,1.76078 5.095412,5.04263 5.095412,5.04263 z"
       id="path34403"
       inkscape:label="vertical_shadow" /><path
       style="font-variation-settings:normal;display:inline;opacity:1;vector-effect:none;fill:#fbf1c7;fill-opacity:0.40000001;stroke:none;stroke-width:0.223107px;stroke-linecap:butt;stroke-linejoin:miter;stroke-miterlimit:4;stroke-dasharray:none;stroke-dashoffset:0;stroke-opacity:1;-inkscape-stroke:none;stop-color:#000000;stop-opacity:1"
       d="m 84.666906,17.219353 c 0,0 1.095722,0.770862 1.283317,5.92573 0.187595,5.154866 1.083798,29.684289 1.177596,39.952006 0.0938,10.267714 0.302643,40.771251 -0.192999,44.840241 -0.495642,4.069 -0.850177,36.33726 -0.850177,36.33726 l -1.417977,5.84375 z"
       id="path34405"
       inkscape:label="vertical_highlight" /><path
       style="fill:#282828;stroke:none;stroke-width:0.325039px;stroke-linecap:butt;stroke-linejoin:miter;stroke-opacity:1;font-variation-settings:normal;opacity:1;vector-effect:none;fill-opacity:0.60000002;stroke-miterlimit:4;stroke-dasharray:none;stroke-dashoffset:0;-inkscape-stroke:none;stop-color:#000000;stop-opacity:1"
       d="m 18.65328,84.666666 c 0,0 4.52018,-3.062939 9.166035,-3.810027 4.645856,-0.747088 47.234514,-2.278271 51.433163,-1.554239 4.198647,0.724035 41.632942,1.556216 46.840142,1.059863 5.20719,-0.496353 21.79192,0.226237 21.79192,0.226237 l 4.21168,4.07756 z"
       id="path37471"
       inkscape:label="horizontal_shadow" /><path
       style="font-variation-settings:normal;opacity:1;vector-effect:none;fill:#fbf1c7;fill-opacity:0.4;stroke:none;stroke-width:0.234088px;stroke-linecap:butt;stroke-linejoin:miter;stroke-miterlimit:4;stroke-dasharray:none;stroke-dashoffset:0;stroke-opacity:1;-inkscape-stroke:none;stop-color:#000000;stop-opacity:1"
       d="m 18.65328,84.666374 5.070462,2.195681 c 0,0 30.555025,-0.397982 42.000644,-0.646669 11.445618,-0.248686 28.632893,0.49294 36.165314,0.657248 7.53242,0.164309 37.50674,-0.07595 39.30558,-0.414861 1.79883,-0.338911 8.72746,-0.598559 8.72746,-0.598559 l 2.17348,-1.193154 z"
       id="path37473"
       inkscape:label="horizontal_highlight" /></g><g
     inkscape:groupmode="layer"
     id="layer6"
     inkscape:label="letters"><g
       id="g1035"
       inkscape:label="A"><path
         style="fill:#fbf1c7;stroke:none;stroke-width:0.234088px;stroke-linecap:butt;stroke-linejoin:miter;stroke-opacity:1;font-variation-settings:normal;opacity:1;fill-opacity:0.4;stroke-miterlimit:4;stroke-dasharray:none;stroke-dashoffset:0;stop-color:#000000;stop-opacity:1"
         d="m 22.605194,68.882794 c 0,0 5.275089,-2.022817 7.300991,-2.502416 2.025901,-0.4796 36.894764,-10.473227 36.894764,-10.473227 l 5.124685,-3.89809 -25.626623,8.031641 -22.73662,5.949217 z"
         id="path50946" /><path
         style="fill:#fbf1c7;stroke:none;stroke-width:0.234088px;stroke-linecap:butt;stroke-linejoin:miter;stroke-opacity:1;font-variation-settings:normal;opacity:1;fill-opacity:0.4;stroke-miterlimit:4;stroke-dasharray:none;stroke-dashoffset:0;stop-color:#000000;stop-opacity:1"
         d="m 50.166354,33.318439 c 0,0 10.158272,22.000435 12.354086,29.468109 2.195814,7.467674 7.643622,13.943639 7.643622,13.943639 L 58.669684,48.115415 Z"
         id="path53351" /><path
         style="fill:#fbf1c7;stroke:none;stroke-width:0.234088px;stroke-linecap:butt;stroke-linejoin:miter;stroke-opacity:1;font-variation-settings:normal;opacity:1;fill-opacity:0.4;stroke-miterlimit:4;stroke-dasharray:none;stroke-dashoffset:0;stop-color:#000000;stop-opacity:1"
         d="m 36.682296,78.092386 c 0,0 3.935346,-5.476435 4.208632,-5.961896 0.273285,-0.485462 6.523087,-39.819478 6.523087,-39.819478 0,0 0.492866,-6.138257 1.251673,-7.513678 0.758809,-1.37542 2.3501,-4.831474 2.3501,-4.831474 l -5.99631,3.740843 z"
         id="path51746" /><path
         style="fill:#fbf1c7;stroke:none;stroke-width:0.234088px;stroke-linecap:butt;stroke-linejoin:miter;stroke-opacity:1;font-variation-settings:normal;opacity:1;fill-opacity:0.4;stroke-miterlimit:4;stroke-dasharray:none;stroke-dashoffset:0;stop-color:#000000;stop-opacity:1"
         d="m 52.184601,23.881229 c 0,0 0.43058,8.662719 1.844929,11.86545 1.414351,3.202728 -1.634805,0.300966 -1.634805,0.300966 l -2.937502,-6.341078 z"
         id="path52546" /><path
         style="fill:#282828;stroke:none;stroke-width:0.325039px;stroke-linecap:butt;stroke-linejoin:miter;stroke-opacity:1;font-variation-settings:normal;opacity:1;fill-opacity:1;stroke-miterlimit:4;stroke-dasharray:none;stroke-dashoffset:0;stop-color:#000000;stop-opacity:1"
         d="m 52.184601,23.881229 -5.979917,6.150133 c 0,0 1.975459,-0.465672 3.96167,3.287077 1.986209,3.752749 19.997708,43.411748 19.997708,43.411748 0,0 -2.568583,-9.983353 -3.260259,-11.702703 -0.691674,-1.71935 -14.534946,-33.039613 -14.534946,-33.039613 0,0 -0.622078,-0.642888 -0.499388,-2.26481 0.122693,-1.62192 0.315132,-5.841832 0.315132,-5.841832 z"
         id="path44405" /><path
         style="fill:#282828;stroke:none;stroke-width:0.325039px;stroke-linecap:butt;stroke-linejoin:miter;stroke-opacity:1;font-variation-settings:normal;opacity:1;fill-opacity:1;stroke-miterlimit:4;stroke-dasharray:none;stroke-dashoffset:0;stop-color:#000000;stop-opacity:1"
         d="m 42.435454,19.059087 8.580334,0.906773 c 0,0 -3.237881,2.622971 -3.804893,4.460679 -0.567016,1.837709 -8.0372,46.853033 -8.0372,46.853033 l -2.491399,6.812814 0.675822,-8.516604 6.694541,-45.75246 c 0,0 0.161128,-0.578485 -0.212178,-1.890034 -0.373303,-1.311548 -1.405027,-2.874201 -1.405027,-2.874201 z"
         id="path45180" /><path
         style="fill:#282828;stroke:none;stroke-width:0.325039px;stroke-linecap:butt;stroke-linejoin:miter;stroke-opacity:1;font-variation-settings:normal;opacity:1;fill-opacity:1;stroke-miterlimit:4;stroke-dasharray:none;stroke-dashoffset:0;stop-color:#000000;stop-opacity:1"
         d="m 21.681736,62.437036 0.923458,6.445758 c 0,0 1.552012,-1.756815 3.967368,-2.74092 2.415354,-0.984104 41.600497,-11.578727 41.600497,-11.578727 l 3.752575,-2.554086 -15.132031,3.0052 -29.270724,7.939625 c 0,0 -0.924624,0.150775 -2.65188,-0.424355 -1.727255,-0.575127 -3.730533,-2.257872 -3.730533,-2.257872 z"
         id="path45192" /></g><g
       id="g1026"
       inkscape:label="R"><path
         style="fill:#fbf1c7;stroke:none;stroke-width:0.234088px;stroke-linecap:butt;stroke-linejoin:miter;stroke-opacity:1;font-variation-settings:normal;opacity:1;fill-opacity:0.4;stroke-miterlimit:4;stroke-dasharray:none;stroke-dashoffset:0;stop-color:#000000;stop-opacity:1"
         d="m 93.909016,36.695803 c 0,0 3.538646,-1.973228 4.707419,-2.349505 C 99.785208,33.97002 137.99323,23.631303 137.99323,23.631303 L 95.928287,32.04547 Z"
         id="path65773" /><path
         style="fill:#fbf1c7;stroke:none;stroke-width:0.234088px;stroke-linecap:butt;stroke-linejoin:miter;stroke-opacity:1;font-variation-settings:normal;opacity:1;fill-opacity:0.4;stroke-miterlimit:4;stroke-dasharray:none;stroke-dashoffset:0;stop-color:#000000;stop-opacity:1"
         d="m 105.12801,65.084935 c 0,0 4.64595,-9.647954 7.09242,-12.655338 2.44648,-3.007384 21.33876,-33.227345 21.33876,-33.227345 l -30.53962,41.243675 z"
         id="path66597" /><path
         style="fill:#fbf1c7;stroke:none;stroke-width:0.234088px;stroke-linecap:butt;stroke-linejoin:miter;stroke-opacity:1;font-variation-settings:normal;opacity:1;fill-opacity:0.4;stroke-miterlimit:4;stroke-dasharray:none;stroke-dashoffset:0;stop-color:#000000;stop-opacity:1"
         d="m 108.31612,76.855025 0.53245,-4.562297 -0.11504,-43.229765 -2.05742,0.621458 0.98439,43.907445 z"
         id="path72697" /><path
         style="display:inline;fill:#fbf1c7;stroke:none;stroke-width:0.234088px;stroke-linecap:butt;stroke-linejoin:miter;stroke-opacity:1;font-variation-settings:normal;opacity:1;fill-opacity:0.4;stroke-miterlimit:4;stroke-dasharray:none;stroke-dashoffset:0;stop-color:#000000;stop-opacity:1"
         d="m 112.73512,23.517924 c 0,0 -3.46579,2.581514 -4.73555,7.048973 -1.26975,4.467457 -1.67151,-4.295075 -1.67151,-4.295075 z"
         id="path67393" /><path
         style="fill:#282828;stroke:none;stroke-width:0.325039px;stroke-linecap:butt;stroke-linejoin:miter;stroke-opacity:1;font-variation-settings:normal;opacity:1;fill-opacity:1;stroke-miterlimit:4;stroke-dasharray:none;stroke-dashoffset:0;stop-color:#000000;stop-opacity:1"
         d="m 92.633508,29.405278 1.275508,7.290525 c 0,0 1.453973,-1.874099 4.177419,-3.320666 2.723445,-1.44657 39.906795,-9.743834 39.906795,-9.743834 0,0 -35.69373,5.879882 -38.494441,5.881361 -2.800704,0.0016 -6.865281,-0.107386 -6.865281,-0.107386 z"
         id="path46121" /><path
         style="fill:#fbf1c7;stroke:none;stroke-width:0.234088px;stroke-linecap:butt;stroke-linejoin:miter;stroke-opacity:1;font-variation-settings:normal;opacity:1;fill-opacity:0.4;stroke-miterlimit:4;stroke-dasharray:none;stroke-dashoffset:0;stop-color:#000000;stop-opacity:1"
         d="m 92.535914,51.987198 c 0,0 2.398307,-0.506206 4.30077,-0.286147 1.902462,0.220062 39.383646,20.286467 39.383646,20.286467 L 97.372494,48.131502 Z"
         id="path65859" /><path
         style="fill:#282828;stroke:none;stroke-width:0.325039px;stroke-linecap:butt;stroke-linejoin:miter;stroke-opacity:1;font-variation-settings:normal;opacity:1;fill-opacity:1;stroke-miterlimit:4;stroke-dasharray:none;stroke-dashoffset:0;stop-color:#000000;stop-opacity:1"
         d="m 101.85627,23.506464 10.87885,0.01146 c 0,0 -4.52387,2.654583 -4.7434,4.155033 -0.21954,1.500455 0.3244,49.182067 0.3244,49.182067 0,0 -1.33561,-2.633077 -1.54128,-4.332718 -0.20568,-1.699641 -1.21515,-43.160601 -1.71406,-44.265167 -0.49892,-1.104567 -3.20451,-4.750676 -3.20451,-4.750675 z"
         id="path46205" /><path
         style="fill:#282828;stroke:none;stroke-width:0.325039px;stroke-linecap:butt;stroke-linejoin:miter;stroke-opacity:1;font-variation-settings:normal;opacity:1;fill-opacity:1;stroke-miterlimit:4;stroke-dasharray:none;stroke-dashoffset:0;stop-color:#000000;stop-opacity:1"
         d="m 97.466617,44.564538 -4.930703,7.42266 c 0,0 2.951704,-1.998207 4.9848,-1.472557 2.033098,0.52565 38.699616,21.472877 38.699616,21.472877 l -1.25165,-3.415353 c 0,0 -34.62797,-19.008603 -35.483493,-20.409773 -0.85553,-1.40117 -2.01857,-3.597854 -2.01857,-3.597854 z"
         id="path46229" /><path
         style="fill:#282828;stroke:none;stroke-width:0.325039px;stroke-linecap:butt;stroke-linejoin:miter;stroke-opacity:1;font-variation-settings:normal;opacity:1;fill-opacity:1;stroke-miterlimit:4;stroke-dasharray:none;stroke-dashoffset:0;stop-color:#000000;stop-opacity:1"
         d="m 98.177976,58.486465 6.950034,6.59847 c 0,0 -0.73578,-3.909777 0.20549,-5.558456 0.94127,-1.648677 28.22569,-40.324227 28.22569,-40.324227 l -5.53425,3.810054 c 0,0 -24.23379,35.135191 -25.44223,35.149743 -1.20843,0.01455 -4.404734,0.324416 -4.404734,0.324416 z"
         id="path49982" /></g><g
       id="g1008"
       inkscape:label="K"><path
         style="fill:#fbf1c7;stroke:none;stroke-width:0.234088px;stroke-linecap:butt;stroke-linejoin:miter;stroke-opacity:1;font-variation-settings:normal;opacity:1;fill-opacity:0.4;stroke-miterlimit:4;stroke-dasharray:none;stroke-dashoffset:0;stop-color:#000000;stop-opacity:1"
         d="m 42.433433,93.829721 c 0,0 -2.896616,3.711188 -3.129185,4.867082 -0.232569,1.155895 -0.768681,46.381917 -0.768681,46.381917 L 36.682296,97.172723 Z"
         id="path75675" /><path
         style="display:inline;fill:#fbf1c7;stroke:none;stroke-width:0.234088px;stroke-linecap:butt;stroke-linejoin:miter;stroke-opacity:1;font-variation-settings:normal;opacity:1;fill-opacity:0.4;stroke-miterlimit:4;stroke-dasharray:none;stroke-dashoffset:0;stop-color:#000000;stop-opacity:1"
         d="m 33.464436,127.81681 c 0,0 0.296302,-2.45182 1.631384,-4.01876 1.335079,-1.56694 29.395343,-27.538806 29.395343,-27.538806 L 32.150394,122.54535 Z"
         id="path68916" /><path
         style="fill:#282828;stroke:none;stroke-width:0.325039px;stroke-linecap:butt;stroke-linejoin:miter;stroke-opacity:1;font-variation-settings:normal;opacity:1;fill-opacity:1;stroke-miterlimit:4;stroke-dasharray:none;stroke-dashoffset:0;stop-color:#000000;stop-opacity:1"
         d="m 30.428366,94.013614 12.005067,-0.183893 c 0,0 -3.716888,1.963343 -4.415989,5.199274 -0.6991,3.235925 0.518123,46.049725 0.518123,46.049725 l -2.279348,-2.88903 c 0,0 -0.975421,-40.34839 -1.760072,-42.272907 -0.784651,-1.92451 -4.067781,-5.903169 -4.067781,-5.903169 z"
         id="path46968" /><path
         style="fill:#282828;stroke:none;stroke-width:0.325039px;stroke-linecap:butt;stroke-linejoin:miter;stroke-opacity:1;font-variation-settings:normal;opacity:1;fill-opacity:1;stroke-miterlimit:4;stroke-dasharray:none;stroke-dashoffset:0;stop-color:#000000;stop-opacity:1"
         d="m 25.493996,110.89409 4.813961,-5.35981 c 0,0 0.687374,3.88513 2.42734,5.89618 1.739969,2.01104 31.815593,30.63136 31.815593,30.63136 l -3.659296,-0.97847 c 0,0 -28.249761,-28.11905 -30.392928,-29.03506 -2.143167,-0.91601 -5.00467,-1.1542 -5.00467,-1.1542 z"
         id="path47719" /><path
         style="fill:#282828;stroke:none;stroke-width:0.325039px;stroke-linecap:butt;stroke-linejoin:miter;stroke-opacity:1;font-variation-settings:normal;opacity:1;fill-opacity:1;stroke-miterlimit:4;stroke-dasharray:none;stroke-dashoffset:0;stop-color:#000000;stop-opacity:1"
         d="m 28.379502,121.23525 5.084934,6.58156 c 0,0 -0.579181,-3.2888 0.578517,-4.89658 1.157697,-1.60779 30.44821,-26.660986 30.44821,-26.660986 l -3.801428,0.20279 c 0,0 -27.413209,24.371646 -28.466438,24.371646 -1.053227,0 -3.843795,0.40157 -3.843795,0.40157 z"
         id="path47731" /></g><g
       id="g1001"
       inkscape:label="S"><path
         style="display:inline;fill:#fbf1c7;stroke:none;stroke-width:0.234088px;stroke-linecap:butt;stroke-linejoin:miter;stroke-opacity:1;font-variation-settings:normal;opacity:1;fill-opacity:0.4;stroke-miterlimit:4;stroke-dasharray:none;stroke-dashoffset:0;stop-color:#000000;stop-opacity:1"
         d="m 102.67155,121.40217 c 0,0 1.6203,-2.64064 2.49886,-3.7544 0.87856,-1.11376 24.96748,-22.473577 24.96748,-22.473577 l -27.78456,21.557137 z"
         id="path76572" /><path
         style="display:inline;fill:#fbf1c7;stroke:none;stroke-width:0.234088px;stroke-linecap:butt;stroke-linejoin:miter;stroke-opacity:1;font-variation-settings:normal;opacity:1;fill-opacity:0.4;stroke-miterlimit:4;stroke-dasharray:none;stroke-dashoffset:0;stop-color:#000000;stop-opacity:1"
         d="m 108.53595,147.94531 c 0,0 0.46379,-1.54829 1.75143,-3.06288 1.28764,-1.51458 18.5357,-18.52267 18.5357,-18.52267 l -21.79387,17.22472 z"
         id="path76584" /><path
         style="display:inline;fill:#fbf1c7;stroke:none;stroke-width:0.234088px;stroke-linecap:butt;stroke-linejoin:miter;stroke-opacity:1;font-variation-settings:normal;opacity:1;fill-opacity:0.4;stroke-miterlimit:4;stroke-dasharray:none;stroke-dashoffset:0;stop-color:#000000;stop-opacity:1"
         d="m 93.052446,107.92971 c 0,0 5.157878,1.37038 5.999755,1.83751 0.841878,0.46712 30.107179,25.23055 30.107179,25.23055 L 99.163943,106.09169 Z"
         id="path76560" /><path
         style="fill:#282828;stroke:none;stroke-width:0.325039px;stroke-linecap:butt;stroke-linejoin:miter;stroke-opacity:1;font-variation-settings:normal;opacity:1;fill-opacity:1;stroke-miterlimit:4;stroke-dasharray:none;stroke-dashoffset:0;stop-color:#000000;stop-opacity:1"
         d="m 93.052446,107.92971 9.563754,-8.676285 c 0,0 -2.0354,5.105025 0.20744,8.419965 2.24284,3.31495 29.38985,27.74981 29.38985,27.74981 l -3.05411,-0.42543 c 0,0 -28.27766,-26.44488 -29.679453,-26.53503 -1.401789,-0.0901 -6.427481,-0.53303 -6.427481,-0.53303 z"
         id="path49994" /><path
         style="fill:#282828;stroke:none;stroke-width:0.325039px;stroke-linecap:butt;stroke-linejoin:miter;stroke-opacity:1;font-variation-settings:normal;opacity:1;fill-opacity:1;stroke-miterlimit:4;stroke-dasharray:none;stroke-dashoffset:0;stop-color:#000000;stop-opacity:1"
         d="m 96.136512,114.99262 6.535038,6.40955 c 0,0 0.35067,-3.2039 1.50864,-4.68991 1.15798,-1.486 25.9577,-21.538067 25.9577,-21.538067 l -2.91208,0.595866 c 0,0 -25.14094,19.940811 -26.13543,19.940811 -0.99448,0 -4.953868,-0.71825 -4.953868,-0.71825 z"
         id="path50006" /><path
         style="fill:#282828;stroke:none;stroke-width:0.325039px;stroke-linecap:butt;stroke-linejoin:miter;stroke-opacity:1;font-variation-settings:normal;opacity:1;fill-opacity:1;stroke-miterlimit:4;stroke-dasharray:none;stroke-dashoffset:0;stop-color:#000000;stop-opacity:1"
         d="m 102.35333,141.55052 6.18262,6.39479 c 0,0 -0.31013,-2.13166 0.36022,-3.78003 0.67035,-1.64837 19.92691,-17.80552 19.92691,-17.80552 l -4.91274,1.12261 c 0,0 -15.76358,14.92264 -17.6116,14.92264 -1.84803,0 -3.94541,-0.85449 -3.94541,-0.85449 z"
         id="path50018" /></g></g></svg>
